<svg width="1370" height="36" viewBox="0 0 1370 36" fill="none" xmlns="http://www.w3.org/2000/svg">
<path d="M12.92 35V2.36C12.44 2.36 11.448 2.456 9.944 2.648L0.536 3.848V1.4H28.568V3.848L19.16 2.648C17.656 2.456 16.664 2.36 16.184 2.36V35H12.92ZM36.365 35V1.4H39.629V16.952H59.789V1.4H63.053V35H59.789V18.104H39.629V35H36.365ZM75.5525 35V1.4H90.1925V3.752L81.7925 2.648C80.3205 2.456 79.3285 2.36 78.8165 2.36V17C79.2325 17 80.2245 16.952 81.7925 16.856L89.6645 16.376V18.584L81.7925 18.104C80.2245 18.008 79.2325 17.96 78.8165 17.96V34.04C79.3925 34.04 80.4005 33.944 81.8405 33.752L90.3365 32.648V35H75.5525ZM108.342 35L121.254 1.4H124.23L137.142 35H133.638L127.686 19.256H116.79L111.846 35H108.342ZM121.59 3.896L117.126 18.104H127.254L121.878 3.896H121.59ZM144.928 1.4H151.359C154.752 1.4 157.376 2.12 159.232 3.56C161.12 4.968 162.064 6.952 162.064 9.512C162.064 11.496 161.472 13.144 160.288 14.456C159.136 15.768 157.456 16.648 155.248 17.096V17.384C157.36 17.8 159.088 18.792 160.432 20.36C161.776 21.928 162.784 23.864 163.456 26.168C164.064 28.28 164.656 29.928 165.232 31.112C165.84 32.264 166.496 33.096 167.2 33.608C167.936 34.12 168.8 34.488 169.792 34.712V35H167.824C166.416 35 165.248 34.744 164.32 34.232C163.424 33.72 162.656 32.856 162.016 31.64C161.376 30.424 160.768 28.744 160.192 26.6C159.264 23.304 158.032 20.968 156.496 19.592C154.96 18.216 153.088 17.528 150.88 17.528H150.592V16.664H150.88C156.032 16.664 158.608 14.296 158.608 9.56C158.608 4.888 156.192 2.552 151.359 2.552H148.192V35H144.928V1.4ZM181.248 35V2.36C180.768 2.36 179.776 2.456 178.272 2.648L168.864 3.848V1.4H196.896V3.848L187.488 2.648C185.984 2.456 184.992 2.36 184.512 2.36V35H181.248ZM215.231 18.2C215.231 15.736 215.663 13.448 216.527 11.336C217.423 9.192 218.655 7.336 220.223 5.768C221.823 4.168 223.679 2.936 225.791 2.072C227.935 1.176 230.239 0.727998 232.703 0.727998C235.167 0.727998 237.455 1.176 239.567 2.072C241.711 2.936 243.567 4.168 245.135 5.768C246.735 7.336 247.967 9.192 248.831 11.336C249.727 13.448 250.175 15.736 250.175 18.2C250.175 20.664 249.727 22.968 248.831 25.112C247.967 27.224 246.735 29.08 245.135 30.68C243.567 32.248 241.711 33.48 239.567 34.376C237.455 35.24 235.167 35.672 232.703 35.672C230.239 35.672 227.935 35.24 225.791 34.376C223.679 33.48 221.823 32.248 220.223 30.68C218.655 29.08 217.423 27.224 216.527 25.112C215.663 22.968 215.231 20.664 215.231 18.2ZM218.879 18.2C218.879 21.464 219.455 24.328 220.607 26.792C221.759 29.224 223.375 31.128 225.455 32.504C227.535 33.848 229.951 34.52 232.703 34.52C235.455 34.52 237.871 33.848 239.951 32.504C242.031 31.128 243.647 29.208 244.799 26.744C245.951 24.28 246.527 21.432 246.527 18.2C246.527 14.968 245.951 12.136 244.799 9.704C243.647 7.24 242.031 5.32 239.951 3.944C237.871 2.568 235.455 1.88 232.703 1.88C229.951 1.88 227.535 2.568 225.455 3.944C223.407 5.288 221.791 7.192 220.607 9.656C219.455 12.088 218.879 14.936 218.879 18.2ZM260.24 35V1.4H274.352V3.752L266.384 2.648C264.944 2.456 263.984 2.36 263.504 2.36V17.384C264.016 17.384 265.008 17.336 266.48 17.24L273.824 16.76V18.968L266.48 18.488C265.008 18.392 264.016 18.344 263.504 18.344V35H260.24ZM304.342 35V2.36C303.862 2.36 302.87 2.456 301.366 2.648L291.958 3.848V1.4H319.99V3.848L310.582 2.648C309.078 2.456 308.086 2.36 307.606 2.36V35H304.342ZM327.787 1.4H334.219C337.611 1.4 340.235 2.12 342.091 3.56C343.979 4.968 344.923 6.952 344.923 9.512C344.923 11.496 344.331 13.144 343.147 14.456C341.995 15.768 340.315 16.648 338.107 17.096V17.384C340.219 17.8 341.947 18.792 343.291 20.36C344.635 21.928 345.643 23.864 346.315 26.168C346.923 28.28 347.515 29.928 348.091 31.112C348.699 32.264 349.355 33.096 350.059 33.608C350.795 34.12 351.659 34.488 352.651 34.712V35H350.683C349.275 35 348.107 34.744 347.179 34.232C346.283 33.72 345.515 32.856 344.875 31.64C344.235 30.424 343.627 28.744 343.051 26.6C342.123 23.304 340.891 20.968 339.355 19.592C337.819 18.216 335.947 17.528 333.739 17.528H333.451V16.664H333.739C338.891 16.664 341.467 14.296 341.467 9.56C341.467 4.888 339.051 2.552 334.219 2.552H331.051V35H327.787V1.4ZM355.045 35L367.957 1.4H370.933L383.845 35H380.341L374.389 19.256H363.493L358.549 35H355.045ZM368.293 3.896L363.829 18.104H373.957L368.581 3.896H368.293ZM390.911 35L392.111 0.727998H392.687L416.831 29.912H417.119L416.063 1.4H419.327L418.127 35.672H417.551L393.407 6.488H393.119L394.175 35H390.911ZM428.171 33.944L428.459 31.064H428.747C429.995 32.152 431.403 33 432.971 33.608C434.539 34.216 436.091 34.52 437.627 34.52C439.803 34.52 441.563 33.928 442.907 32.744C444.251 31.528 444.923 29.912 444.923 27.896C444.923 26.776 444.667 25.736 444.155 24.776C443.675 23.816 442.859 22.84 441.707 21.848C440.587 20.856 439.035 19.784 437.051 18.632C435.675 17.832 434.363 17 433.115 16.136C431.867 15.24 430.843 14.216 430.043 13.064C429.243 11.88 428.843 10.472 428.843 8.84C428.843 6.408 429.723 4.456 431.483 2.984C433.243 1.48 435.563 0.727998 438.443 0.727998C439.723 0.727998 441.099 0.871998 442.571 1.16C444.043 1.416 445.179 1.752 445.979 2.168L445.739 4.856H445.451C443.627 2.872 441.291 1.88 438.443 1.88C436.395 1.88 434.747 2.408 433.499 3.464C432.251 4.488 431.627 5.88 431.627 7.64C431.627 8.952 431.963 10.088 432.635 11.048C433.339 11.976 434.235 12.824 435.323 13.592C436.411 14.328 437.579 15.048 438.827 15.752C440.267 16.584 441.659 17.464 443.003 18.392C444.379 19.32 445.499 20.44 446.363 21.752C447.259 23.032 447.707 24.648 447.707 26.6C447.707 28.392 447.291 29.976 446.459 31.352C445.627 32.696 444.443 33.752 442.907 34.52C441.403 35.288 439.643 35.672 437.627 35.672C436.347 35.672 434.843 35.512 433.115 35.192C431.387 34.872 429.739 34.456 428.171 33.944ZM457.162 35V1.4H471.274V3.752L463.306 2.648C461.866 2.456 460.906 2.36 460.426 2.36V17.384C460.938 17.384 461.93 17.336 463.402 17.24L470.746 16.76V18.968L463.402 18.488C461.93 18.392 460.938 18.344 460.426 18.344V35H457.162ZM477.778 18.2C477.778 15.736 478.21 13.448 479.074 11.336C479.97 9.192 481.202 7.336 482.77 5.768C484.37 4.168 486.226 2.936 488.338 2.072C490.482 1.176 492.786 0.727998 495.25 0.727998C497.714 0.727998 500.002 1.176 502.114 2.072C504.258 2.936 506.114 4.168 507.682 5.768C509.282 7.336 510.514 9.192 511.378 11.336C512.274 13.448 512.722 15.736 512.722 18.2C512.722 20.664 512.274 22.968 511.378 25.112C510.514 27.224 509.282 29.08 507.682 30.68C506.114 32.248 504.258 33.48 502.114 34.376C500.002 35.24 497.714 35.672 495.25 35.672C492.786 35.672 490.482 35.24 488.338 34.376C486.226 33.48 484.37 32.248 482.77 30.68C481.202 29.08 479.97 27.224 479.074 25.112C478.21 22.968 477.778 20.664 477.778 18.2ZM481.426 18.2C481.426 21.464 482.002 24.328 483.154 26.792C484.306 29.224 485.922 31.128 488.002 32.504C490.082 33.848 492.498 34.52 495.25 34.52C498.002 34.52 500.418 33.848 502.498 32.504C504.578 31.128 506.194 29.208 507.346 26.744C508.498 24.28 509.074 21.432 509.074 18.2C509.074 14.968 508.498 12.136 507.346 9.704C506.194 7.24 504.578 5.32 502.498 3.944C500.418 2.568 498.002 1.88 495.25 1.88C492.498 1.88 490.082 2.568 488.002 3.944C485.954 5.288 484.338 7.192 483.154 9.656C482.002 12.088 481.426 14.936 481.426 18.2ZM522.787 1.4H529.219C532.611 1.4 535.235 2.12 537.091 3.56C538.979 4.968 539.923 6.952 539.923 9.512C539.923 11.496 539.331 13.144 538.147 14.456C536.995 15.768 535.315 16.648 533.107 17.096V17.384C535.219 17.8 536.947 18.792 538.291 20.36C539.635 21.928 540.643 23.864 541.315 26.168C541.923 28.28 542.515 29.928 543.091 31.112C543.699 32.264 544.355 33.096 545.059 33.608C545.795 34.12 546.659 34.488 547.651 34.712V35H545.683C544.275 35 543.107 34.744 542.179 34.232C541.283 33.72 540.515 32.856 539.875 31.64C539.235 30.424 538.627 28.744 538.051 26.6C537.123 23.304 535.891 20.968 534.355 19.592C532.819 18.216 530.947 17.528 528.739 17.528H528.451V16.664H528.739C533.891 16.664 536.467 14.296 536.467 9.56C536.467 4.888 534.051 2.552 529.219 2.552H526.051V35H522.787V1.4ZM585.216 1.4V35H581.952V4.184H581.664L570.048 26.456H568.56L555.36 6.824H555.072L556.128 35H552.864L554.064 0.727998H555.024L570.144 23.192H570.432L581.76 1.4H585.216ZM592.701 35L605.613 1.4H608.589L621.501 35H617.997L612.045 19.256H601.149L596.205 35H592.701ZM605.949 3.896L601.485 18.104H611.613L606.237 3.896H605.949ZM634.108 35V2.36C633.628 2.36 632.636 2.456 631.132 2.648L621.724 3.848V1.4H649.756V3.848L640.348 2.648C638.844 2.456 637.852 2.36 637.372 2.36V35H634.108ZM657.553 35V1.4H660.817V35H657.553ZM670.903 18.2C670.903 15.736 671.335 13.448 672.199 11.336C673.095 9.192 674.327 7.336 675.895 5.768C677.495 4.168 679.351 2.936 681.463 2.072C683.607 1.176 685.911 0.727998 688.375 0.727998C690.839 0.727998 693.127 1.176 695.239 2.072C697.383 2.936 699.239 4.168 700.807 5.768C702.407 7.336 703.639 9.192 704.503 11.336C705.399 13.448 705.847 15.736 705.847 18.2C705.847 20.664 705.399 22.968 704.503 25.112C703.639 27.224 702.407 29.08 700.807 30.68C699.239 32.248 697.383 33.48 695.239 34.376C693.127 35.24 690.839 35.672 688.375 35.672C685.911 35.672 683.607 35.24 681.463 34.376C679.351 33.48 677.495 32.248 675.895 30.68C674.327 29.08 673.095 27.224 672.199 25.112C671.335 22.968 670.903 20.664 670.903 18.2ZM674.551 18.2C674.551 21.464 675.127 24.328 676.279 26.792C677.431 29.224 679.047 31.128 681.127 32.504C683.207 33.848 685.623 34.52 688.375 34.52C691.127 34.52 693.543 33.848 695.623 32.504C697.703 31.128 699.319 29.208 700.471 26.744C701.623 24.28 702.199 21.432 702.199 18.2C702.199 14.968 701.623 12.136 700.471 9.704C699.319 7.24 697.703 5.32 695.623 3.944C693.543 2.568 691.127 1.88 688.375 1.88C685.623 1.88 683.207 2.568 681.127 3.944C679.079 5.288 677.463 7.192 676.279 9.656C675.127 12.088 674.551 14.936 674.551 18.2ZM715.192 35L716.392 0.727998H716.968L741.112 29.912H741.4L740.344 1.4H743.608L742.408 35.672H741.832L717.688 6.488H717.4L718.456 35H715.192ZM763.998 18.584V17.144H811.998V18.584H763.998ZM833.099 35V1.4H839.771C843.227 1.4 845.915 2.12 847.835 3.56C849.755 5 850.715 7 850.715 9.56C850.715 11.448 850.155 13.064 849.035 14.408C847.915 15.72 846.347 16.616 844.331 17.096V17.384C847.083 17.736 849.227 18.696 850.763 20.264C852.331 21.8 853.115 23.752 853.115 26.12C853.115 28.904 852.043 31.08 849.899 32.648C847.755 34.216 844.747 35 840.875 35H833.099ZM839.819 2.552H836.363V16.952H839.771C844.827 16.952 847.355 14.552 847.355 9.752C847.355 4.952 844.843 2.552 839.819 2.552ZM840.875 18.104H836.363V33.848H840.875C846.731 33.848 849.659 31.224 849.659 25.976C849.659 20.728 846.731 18.104 840.875 18.104ZM862.724 35V1.4H877.364V3.752L868.964 2.648C867.492 2.456 866.5 2.36 865.988 2.36V17C866.404 17 867.396 16.952 868.964 16.856L876.836 16.376V18.584L868.964 18.104C867.396 18.008 866.404 17.96 865.988 17.96V34.04C866.564 34.04 867.572 33.944 869.012 33.752L877.508 32.648V35H862.724ZM894.768 35V20.792L882.864 1.4H886.512L897.216 18.968H897.504L906.048 1.4H909.696L898.224 20.12V35H894.768ZM913.153 18.2C913.153 15.736 913.585 13.448 914.449 11.336C915.345 9.192 916.577 7.336 918.145 5.768C919.745 4.168 921.601 2.936 923.713 2.072C925.857 1.176 928.161 0.727998 930.625 0.727998C933.089 0.727998 935.377 1.176 937.489 2.072C939.633 2.936 941.489 4.168 943.057 5.768C944.657 7.336 945.889 9.192 946.753 11.336C947.649 13.448 948.097 15.736 948.097 18.2C948.097 20.664 947.649 22.968 946.753 25.112C945.889 27.224 944.657 29.08 943.057 30.68C941.489 32.248 939.633 33.48 937.489 34.376C935.377 35.24 933.089 35.672 930.625 35.672C928.161 35.672 925.857 35.24 923.713 34.376C921.601 33.48 919.745 32.248 918.145 30.68C916.577 29.08 915.345 27.224 914.449 25.112C913.585 22.968 913.153 20.664 913.153 18.2ZM916.801 18.2C916.801 21.464 917.377 24.328 918.529 26.792C919.681 29.224 921.297 31.128 923.377 32.504C925.457 33.848 927.873 34.52 930.625 34.52C933.377 34.52 935.793 33.848 937.873 32.504C939.953 31.128 941.569 29.208 942.721 26.744C943.873 24.28 944.449 21.432 944.449 18.2C944.449 14.968 943.873 12.136 942.721 9.704C941.569 7.24 939.953 5.32 937.873 3.944C935.793 2.568 933.377 1.88 930.625 1.88C927.873 1.88 925.457 2.568 923.377 3.944C921.329 5.288 919.713 7.192 918.529 9.656C917.377 12.088 916.801 14.936 916.801 18.2ZM957.442 35L958.642 0.727998H959.218L983.362 29.912H983.65L982.594 1.4H985.858L984.658 35.672H984.082L959.938 6.488H959.65L960.706 35H957.442ZM997.631 35V1.4H1008.19C1011.9 1.4 1015.13 2.104 1017.89 3.512C1020.64 4.92 1022.78 6.888 1024.32 9.416C1025.85 11.912 1026.62 14.84 1026.62 18.2C1026.62 21.56 1025.85 24.504 1024.32 27.032C1022.78 29.528 1020.64 31.48 1017.89 32.888C1015.13 34.296 1011.9 35 1008.19 35H997.631ZM1008.19 2.552H1000.89V33.848H1008.19C1012.83 33.848 1016.45 32.472 1019.04 29.72C1021.66 26.968 1022.97 23.128 1022.97 18.2C1022.97 13.272 1021.66 9.432 1019.04 6.68C1016.45 3.928 1012.83 2.552 1008.19 2.552ZM1049.66 35V1.4H1056.33C1059.79 1.4 1062.48 2.12 1064.4 3.56C1066.32 5 1067.28 7 1067.28 9.56C1067.28 11.448 1066.72 13.064 1065.6 14.408C1064.48 15.72 1062.91 16.616 1060.89 17.096V17.384C1063.65 17.736 1065.79 18.696 1067.33 20.264C1068.89 21.8 1069.68 23.752 1069.68 26.12C1069.68 28.904 1068.61 31.08 1066.46 32.648C1064.32 34.216 1061.31 35 1057.44 35H1049.66ZM1056.38 2.552H1052.93V16.952H1056.33C1061.39 16.952 1063.92 14.552 1063.92 9.752C1063.92 4.952 1061.41 2.552 1056.38 2.552ZM1057.44 18.104H1052.93V33.848H1057.44C1063.29 33.848 1066.22 31.224 1066.22 25.976C1066.22 20.728 1063.29 18.104 1057.44 18.104ZM1076.89 18.2C1076.89 15.736 1077.32 13.448 1078.18 11.336C1079.08 9.192 1080.31 7.336 1081.88 5.768C1083.48 4.168 1085.33 2.936 1087.45 2.072C1089.59 1.176 1091.89 0.727998 1094.36 0.727998C1096.82 0.727998 1099.11 1.176 1101.22 2.072C1103.37 2.936 1105.22 4.168 1106.79 5.768C1108.39 7.336 1109.62 9.192 1110.49 11.336C1111.38 13.448 1111.83 15.736 1111.83 18.2C1111.83 20.664 1111.38 22.968 1110.49 25.112C1109.62 27.224 1108.39 29.08 1106.79 30.68C1105.22 32.248 1103.37 33.48 1101.22 34.376C1099.11 35.24 1096.82 35.672 1094.36 35.672C1091.89 35.672 1089.59 35.24 1087.45 34.376C1085.33 33.48 1083.48 32.248 1081.88 30.68C1080.31 29.08 1079.08 27.224 1078.18 25.112C1077.32 22.968 1076.89 20.664 1076.89 18.2ZM1080.53 18.2C1080.53 21.464 1081.11 24.328 1082.26 26.792C1083.41 29.224 1085.03 31.128 1087.11 32.504C1089.19 33.848 1091.61 34.52 1094.36 34.52C1097.11 34.52 1099.53 33.848 1101.61 32.504C1103.69 31.128 1105.3 29.208 1106.45 26.744C1107.61 24.28 1108.18 21.432 1108.18 18.2C1108.18 14.968 1107.61 12.136 1106.45 9.704C1105.3 7.24 1103.69 5.32 1101.61 3.944C1099.53 2.568 1097.11 1.88 1094.36 1.88C1091.61 1.88 1089.19 2.568 1087.11 3.944C1085.06 5.288 1083.45 7.192 1082.26 9.656C1081.11 12.088 1080.53 14.936 1080.53 18.2ZM1121.42 1.4H1124.68V21.656C1124.68 25.528 1125.62 28.552 1127.51 30.728C1129.43 32.872 1132.12 33.944 1135.58 33.944C1137.75 33.944 1139.64 33.528 1141.24 32.696C1142.87 31.832 1144.12 30.648 1144.98 29.144C1145.88 27.64 1146.3 25.912 1146.23 23.96L1145.42 1.4H1148.68L1147.86 23.96C1147.74 27.8 1146.58 30.712 1144.41 32.696C1142.26 34.68 1139.19 35.672 1135.19 35.672C1130.87 35.672 1127.5 34.424 1125.06 31.928C1122.63 29.4 1121.42 25.944 1121.42 21.56V1.4ZM1159.47 35L1160.67 0.727998H1161.25L1185.39 29.912H1185.68L1184.63 1.4H1187.89L1186.69 35.672H1186.11L1161.97 6.488H1161.68L1162.74 35H1159.47ZM1199.66 35V1.4H1210.22C1213.93 1.4 1217.17 2.104 1219.92 3.512C1222.67 4.92 1224.81 6.888 1226.35 9.416C1227.89 11.912 1228.65 14.84 1228.65 18.2C1228.65 21.56 1227.89 24.504 1226.35 27.032C1224.81 29.528 1222.67 31.48 1219.92 32.888C1217.17 34.296 1213.93 35 1210.22 35H1199.66ZM1210.22 2.552H1202.93V33.848H1210.22C1214.86 33.848 1218.48 32.472 1221.07 29.72C1223.69 26.968 1225.01 23.128 1225.01 18.2C1225.01 13.272 1223.69 9.432 1221.07 6.68C1218.48 3.928 1214.86 2.552 1210.22 2.552ZM1233.29 35L1246.21 1.4H1249.18L1262.09 35H1258.59L1252.64 19.256H1241.74L1236.8 35H1233.29ZM1246.54 3.896L1242.08 18.104H1252.21L1246.83 3.896H1246.54ZM1269.88 1.4H1276.31C1279.7 1.4 1282.33 2.12 1284.18 3.56C1286.07 4.968 1287.02 6.952 1287.02 9.512C1287.02 11.496 1286.42 13.144 1285.24 14.456C1284.09 15.768 1282.41 16.648 1280.2 17.096V17.384C1282.31 17.8 1284.04 18.792 1285.38 20.36C1286.73 21.928 1287.74 23.864 1288.41 26.168C1289.02 28.28 1289.61 29.928 1290.18 31.112C1290.79 32.264 1291.45 33.096 1292.15 33.608C1292.89 34.12 1293.75 34.488 1294.74 34.712V35H1292.78C1291.37 35 1290.2 34.744 1289.27 34.232C1288.38 33.72 1287.61 32.856 1286.97 31.64C1286.33 30.424 1285.72 28.744 1285.14 26.6C1284.22 23.304 1282.98 20.968 1281.45 19.592C1279.91 18.216 1278.04 17.528 1275.83 17.528H1275.54V16.664H1275.83C1280.98 16.664 1283.56 14.296 1283.56 9.56C1283.56 4.888 1281.14 2.552 1276.31 2.552H1273.14V35H1269.88V1.4ZM1300.68 35V1.4H1303.94V35H1300.68ZM1316.43 35V1.4H1331.07V3.752L1322.67 2.648C1321.2 2.456 1320.2 2.36 1319.69 2.36V17C1320.11 17 1321.1 16.952 1322.67 16.856L1330.54 16.376V18.584L1322.67 18.104C1321.1 18.008 1320.11 17.96 1319.69 17.96V34.04C1320.27 34.04 1321.28 33.944 1322.72 33.752L1331.21 32.648V35H1316.43ZM1338.34 33.944L1338.63 31.064H1338.92C1340.17 32.152 1341.58 33 1343.14 33.608C1344.71 34.216 1346.26 34.52 1347.8 34.52C1349.98 34.52 1351.74 33.928 1353.08 32.744C1354.42 31.528 1355.1 29.912 1355.1 27.896C1355.1 26.776 1354.84 25.736 1354.33 24.776C1353.85 23.816 1353.03 22.84 1351.88 21.848C1350.76 20.856 1349.21 19.784 1347.22 18.632C1345.85 17.832 1344.54 17 1343.29 16.136C1342.04 15.24 1341.02 14.216 1340.22 13.064C1339.42 11.88 1339.02 10.472 1339.02 8.84C1339.02 6.408 1339.9 4.456 1341.66 2.984C1343.42 1.48 1345.74 0.727998 1348.62 0.727998C1349.9 0.727998 1351.27 0.871998 1352.74 1.16C1354.22 1.416 1355.35 1.752 1356.15 2.168L1355.91 4.856H1355.62C1353.8 2.872 1351.46 1.88 1348.62 1.88C1346.57 1.88 1344.92 2.408 1343.67 3.464C1342.42 4.488 1341.8 5.88 1341.8 7.64C1341.8 8.952 1342.14 10.088 1342.81 11.048C1343.51 11.976 1344.41 12.824 1345.5 13.592C1346.58 14.328 1347.75 15.048 1349 15.752C1350.44 16.584 1351.83 17.464 1353.18 18.392C1354.55 19.32 1355.67 20.44 1356.54 21.752C1357.43 23.032 1357.88 24.648 1357.88 26.6C1357.88 28.392 1357.46 29.976 1356.63 31.352C1355.8 32.696 1354.62 33.752 1353.08 34.52C1351.58 35.288 1349.82 35.672 1347.8 35.672C1346.52 35.672 1345.02 35.512 1343.29 35.192C1341.56 34.872 1339.91 34.456 1338.34 33.944ZM1364.47 32.984C1364.47 32.248 1364.71 31.656 1365.19 31.208C1365.67 30.728 1366.26 30.488 1366.96 30.488C1367.7 30.488 1368.29 30.728 1368.74 31.208C1369.22 31.656 1369.46 32.248 1369.46 32.984C1369.46 33.688 1369.22 34.28 1368.74 34.76C1368.29 35.24 1367.7 35.48 1366.96 35.48C1366.26 35.48 1365.67 35.24 1365.19 34.76C1364.71 34.28 1364.47 33.688 1364.47 32.984Z" fill="#363F34"/>
</svg>
