<svg width="1414" height="397" viewBox="0 0 1414 397" fill="none" xmlns="http://www.w3.org/2000/svg">
<path d="M13.92 45V12.36C13.44 12.36 12.448 12.456 10.944 12.648L1.536 13.848V11.4H29.568V13.848L20.16 12.648C18.656 12.456 17.664 12.36 17.184 12.36V45H13.92ZM37.365 45V11.4H40.629V26.952H60.789V11.4H64.053V45H60.789V28.104H40.629V45H37.365ZM76.5525 45V11.4H91.1925V13.752L82.7925 12.648C81.3205 12.456 80.3285 12.36 79.8165 12.36V27C80.2325 27 81.2245 26.952 82.7925 26.856L90.6645 26.376V28.584L82.7925 28.104C81.2245 28.008 80.2325 27.96 79.8165 27.96V44.04C80.3925 44.04 81.4005 43.944 82.8405 43.752L91.3365 42.648V45H76.5525ZM109.342 45L122.254 11.4H125.23L138.142 45H134.638L128.686 29.256H117.79L112.846 45H109.342ZM122.59 13.896L118.126 28.104H128.254L122.878 13.896H122.59ZM145.928 11.4H152.359C155.752 11.4 158.376 12.12 160.232 13.56C162.12 14.968 163.064 16.952 163.064 19.512C163.064 21.496 162.472 23.144 161.288 24.456C160.136 25.768 158.456 26.648 156.248 27.096V27.384C158.36 27.8 160.088 28.792 161.432 30.36C162.776 31.928 163.784 33.864 164.456 36.168C165.064 38.28 165.656 39.928 166.232 41.112C166.84 42.264 167.496 43.096 168.2 43.608C168.936 44.12 169.8 44.488 170.792 44.712V45H168.824C167.416 45 166.248 44.744 165.32 44.232C164.424 43.72 163.656 42.856 163.016 41.64C162.376 40.424 161.768 38.744 161.192 36.6C160.264 33.304 159.032 30.968 157.496 29.592C155.96 28.216 154.088 27.528 151.88 27.528H151.592V26.664H151.88C157.032 26.664 159.608 24.296 159.608 19.56C159.608 14.888 157.192 12.552 152.359 12.552H149.192V45H145.928V11.4ZM182.248 45V12.36C181.768 12.36 180.776 12.456 179.272 12.648L169.864 13.848V11.4H197.896V13.848L188.488 12.648C186.984 12.456 185.992 12.36 185.512 12.36V45H182.248ZM216.231 28.2C216.231 25.736 216.663 23.448 217.527 21.336C218.423 19.192 219.655 17.336 221.223 15.768C222.823 14.168 224.679 12.936 226.791 12.072C228.935 11.176 231.239 10.728 233.703 10.728C236.167 10.728 238.455 11.176 240.567 12.072C242.711 12.936 244.567 14.168 246.135 15.768C247.735 17.336 248.967 19.192 249.831 21.336C250.727 23.448 251.175 25.736 251.175 28.2C251.175 30.664 250.727 32.968 249.831 35.112C248.967 37.224 247.735 39.08 246.135 40.68C244.567 42.248 242.711 43.48 240.567 44.376C238.455 45.24 236.167 45.672 233.703 45.672C231.239 45.672 228.935 45.24 226.791 44.376C224.679 43.48 222.823 42.248 221.223 40.68C219.655 39.08 218.423 37.224 217.527 35.112C216.663 32.968 216.231 30.664 216.231 28.2ZM219.879 28.2C219.879 31.464 220.455 34.328 221.607 36.792C222.759 39.224 224.375 41.128 226.455 42.504C228.535 43.848 230.951 44.52 233.703 44.52C236.455 44.52 238.871 43.848 240.951 42.504C243.031 41.128 244.647 39.208 245.799 36.744C246.951 34.28 247.527 31.432 247.527 28.2C247.527 24.968 246.951 22.136 245.799 19.704C244.647 17.24 243.031 15.32 240.951 13.944C238.871 12.568 236.455 11.88 233.703 11.88C230.951 11.88 228.535 12.568 226.455 13.944C224.407 15.288 222.791 17.192 221.607 19.656C220.455 22.088 219.879 24.936 219.879 28.2ZM261.24 45V11.4H275.352V13.752L267.384 12.648C265.944 12.456 264.984 12.36 264.504 12.36V27.384C265.016 27.384 266.008 27.336 267.48 27.24L274.824 26.76V28.968L267.48 28.488C266.008 28.392 265.016 28.344 264.504 28.344V45H261.24ZM305.342 45V12.36C304.862 12.36 303.87 12.456 302.366 12.648L292.958 13.848V11.4H320.99V13.848L311.582 12.648C310.078 12.456 309.086 12.36 308.606 12.36V45H305.342ZM328.787 11.4H335.219C338.611 11.4 341.235 12.12 343.091 13.56C344.979 14.968 345.923 16.952 345.923 19.512C345.923 21.496 345.331 23.144 344.147 24.456C342.995 25.768 341.315 26.648 339.107 27.096V27.384C341.219 27.8 342.947 28.792 344.291 30.36C345.635 31.928 346.643 33.864 347.315 36.168C347.923 38.28 348.515 39.928 349.091 41.112C349.699 42.264 350.355 43.096 351.059 43.608C351.795 44.12 352.659 44.488 353.651 44.712V45H351.683C350.275 45 349.107 44.744 348.179 44.232C347.283 43.72 346.515 42.856 345.875 41.64C345.235 40.424 344.627 38.744 344.051 36.6C343.123 33.304 341.891 30.968 340.355 29.592C338.819 28.216 336.947 27.528 334.739 27.528H334.451V26.664H334.739C339.891 26.664 342.467 24.296 342.467 19.56C342.467 14.888 340.051 12.552 335.219 12.552H332.051V45H328.787V11.4ZM356.045 45L368.957 11.4H371.933L384.845 45H381.341L375.389 29.256H364.493L359.549 45H356.045ZM369.293 13.896L364.829 28.104H374.957L369.581 13.896H369.293ZM391.911 45L393.111 10.728H393.687L417.831 39.912H418.119L417.063 11.4H420.327L419.127 45.672H418.551L394.407 16.488H394.119L395.175 45H391.911ZM429.171 43.944L429.459 41.064H429.747C430.995 42.152 432.403 43 433.971 43.608C435.539 44.216 437.091 44.52 438.627 44.52C440.803 44.52 442.563 43.928 443.907 42.744C445.251 41.528 445.923 39.912 445.923 37.896C445.923 36.776 445.667 35.736 445.155 34.776C444.675 33.816 443.859 32.84 442.707 31.848C441.587 30.856 440.035 29.784 438.051 28.632C436.675 27.832 435.363 27 434.115 26.136C432.867 25.24 431.843 24.216 431.043 23.064C430.243 21.88 429.843 20.472 429.843 18.84C429.843 16.408 430.723 14.456 432.483 12.984C434.243 11.48 436.563 10.728 439.443 10.728C440.723 10.728 442.099 10.872 443.571 11.16C445.043 11.416 446.179 11.752 446.979 12.168L446.739 14.856H446.451C444.627 12.872 442.291 11.88 439.443 11.88C437.395 11.88 435.747 12.408 434.499 13.464C433.251 14.488 432.627 15.88 432.627 17.64C432.627 18.952 432.963 20.088 433.635 21.048C434.339 21.976 435.235 22.824 436.323 23.592C437.411 24.328 438.579 25.048 439.827 25.752C441.267 26.584 442.659 27.464 444.003 28.392C445.379 29.32 446.499 30.44 447.363 31.752C448.259 33.032 448.707 34.648 448.707 36.6C448.707 38.392 448.291 39.976 447.459 41.352C446.627 42.696 445.443 43.752 443.907 44.52C442.403 45.288 440.643 45.672 438.627 45.672C437.347 45.672 435.843 45.512 434.115 45.192C432.387 44.872 430.739 44.456 429.171 43.944ZM458.162 45V11.4H472.274V13.752L464.306 12.648C462.866 12.456 461.906 12.36 461.426 12.36V27.384C461.938 27.384 462.93 27.336 464.402 27.24L471.746 26.76V28.968L464.402 28.488C462.93 28.392 461.938 28.344 461.426 28.344V45H458.162ZM478.778 28.2C478.778 25.736 479.21 23.448 480.074 21.336C480.97 19.192 482.202 17.336 483.77 15.768C485.37 14.168 487.226 12.936 489.338 12.072C491.482 11.176 493.786 10.728 496.25 10.728C498.714 10.728 501.002 11.176 503.114 12.072C505.258 12.936 507.114 14.168 508.682 15.768C510.282 17.336 511.514 19.192 512.378 21.336C513.274 23.448 513.722 25.736 513.722 28.2C513.722 30.664 513.274 32.968 512.378 35.112C511.514 37.224 510.282 39.08 508.682 40.68C507.114 42.248 505.258 43.48 503.114 44.376C501.002 45.24 498.714 45.672 496.25 45.672C493.786 45.672 491.482 45.24 489.338 44.376C487.226 43.48 485.37 42.248 483.77 40.68C482.202 39.08 480.97 37.224 480.074 35.112C479.21 32.968 478.778 30.664 478.778 28.2ZM482.426 28.2C482.426 31.464 483.002 34.328 484.154 36.792C485.306 39.224 486.922 41.128 489.002 42.504C491.082 43.848 493.498 44.52 496.25 44.52C499.002 44.52 501.418 43.848 503.498 42.504C505.578 41.128 507.194 39.208 508.346 36.744C509.498 34.28 510.074 31.432 510.074 28.2C510.074 24.968 509.498 22.136 508.346 19.704C507.194 17.24 505.578 15.32 503.498 13.944C501.418 12.568 499.002 11.88 496.25 11.88C493.498 11.88 491.082 12.568 489.002 13.944C486.954 15.288 485.338 17.192 484.154 19.656C483.002 22.088 482.426 24.936 482.426 28.2ZM523.787 11.4H530.219C533.611 11.4 536.235 12.12 538.091 13.56C539.979 14.968 540.923 16.952 540.923 19.512C540.923 21.496 540.331 23.144 539.147 24.456C537.995 25.768 536.315 26.648 534.107 27.096V27.384C536.219 27.8 537.947 28.792 539.291 30.36C540.635 31.928 541.643 33.864 542.315 36.168C542.923 38.28 543.515 39.928 544.091 41.112C544.699 42.264 545.355 43.096 546.059 43.608C546.795 44.12 547.659 44.488 548.651 44.712V45H546.683C545.275 45 544.107 44.744 543.179 44.232C542.283 43.72 541.515 42.856 540.875 41.64C540.235 40.424 539.627 38.744 539.051 36.6C538.123 33.304 536.891 30.968 535.355 29.592C533.819 28.216 531.947 27.528 529.739 27.528H529.451V26.664H529.739C534.891 26.664 537.467 24.296 537.467 19.56C537.467 14.888 535.051 12.552 530.219 12.552H527.051V45H523.787V11.4ZM586.216 11.4V45H582.952V14.184H582.664L571.048 36.456H569.56L556.36 16.824H556.072L557.128 45H553.864L555.064 10.728H556.024L571.144 33.192H571.432L582.76 11.4H586.216ZM593.701 45L606.613 11.4H609.589L622.501 45H618.997L613.045 29.256H602.149L597.205 45H593.701ZM606.949 13.896L602.485 28.104H612.613L607.237 13.896H606.949ZM635.108 45V12.36C634.628 12.36 633.636 12.456 632.132 12.648L622.724 13.848V11.4H650.756V13.848L641.348 12.648C639.844 12.456 638.852 12.36 638.372 12.36V45H635.108ZM658.553 45V11.4H661.817V45H658.553ZM671.903 28.2C671.903 25.736 672.335 23.448 673.199 21.336C674.095 19.192 675.327 17.336 676.895 15.768C678.495 14.168 680.351 12.936 682.463 12.072C684.607 11.176 686.911 10.728 689.375 10.728C691.839 10.728 694.127 11.176 696.239 12.072C698.383 12.936 700.239 14.168 701.807 15.768C703.407 17.336 704.639 19.192 705.503 21.336C706.399 23.448 706.847 25.736 706.847 28.2C706.847 30.664 706.399 32.968 705.503 35.112C704.639 37.224 703.407 39.08 701.807 40.68C700.239 42.248 698.383 43.48 696.239 44.376C694.127 45.24 691.839 45.672 689.375 45.672C686.911 45.672 684.607 45.24 682.463 44.376C680.351 43.48 678.495 42.248 676.895 40.68C675.327 39.08 674.095 37.224 673.199 35.112C672.335 32.968 671.903 30.664 671.903 28.2ZM675.551 28.2C675.551 31.464 676.127 34.328 677.279 36.792C678.431 39.224 680.047 41.128 682.127 42.504C684.207 43.848 686.623 44.52 689.375 44.52C692.127 44.52 694.543 43.848 696.623 42.504C698.703 41.128 700.319 39.208 701.471 36.744C702.623 34.28 703.199 31.432 703.199 28.2C703.199 24.968 702.623 22.136 701.471 19.704C700.319 17.24 698.703 15.32 696.623 13.944C694.543 12.568 692.127 11.88 689.375 11.88C686.623 11.88 684.207 12.568 682.127 13.944C680.079 15.288 678.463 17.192 677.279 19.656C676.127 22.088 675.551 24.936 675.551 28.2ZM716.192 45L717.392 10.728H717.968L742.112 39.912H742.4L741.344 11.4H744.608L743.408 45.672H742.832L718.688 16.488H718.4L719.456 45H716.192ZM803.811 28.584V27.144H851.811V28.584H803.811ZM872.912 45V11.4H879.584C883.04 11.4 885.728 12.12 887.648 13.56C889.568 15 890.528 17 890.528 19.56C890.528 21.448 889.968 23.064 888.848 24.408C887.728 25.72 886.16 26.616 884.144 27.096V27.384C886.896 27.736 889.04 28.696 890.576 30.264C892.144 31.8 892.928 33.752 892.928 36.12C892.928 38.904 891.856 41.08 889.712 42.648C887.568 44.216 884.56 45 880.688 45H872.912ZM879.632 12.552H876.176V26.952H879.584C884.64 26.952 887.168 24.552 887.168 19.752C887.168 14.952 884.656 12.552 879.632 12.552ZM880.688 28.104H876.176V43.848H880.688C886.544 43.848 889.472 41.224 889.472 35.976C889.472 30.728 886.544 28.104 880.688 28.104ZM902.537 45V11.4H917.177V13.752L908.777 12.648C907.305 12.456 906.313 12.36 905.801 12.36V27C906.217 27 907.209 26.952 908.777 26.856L916.649 26.376V28.584L908.777 28.104C907.209 28.008 906.217 27.96 905.801 27.96V44.04C906.377 44.04 907.385 43.944 908.825 43.752L917.321 42.648V45H902.537ZM934.581 45V30.792L922.677 11.4H926.325L937.029 28.968H937.317L945.861 11.4H949.509L938.037 30.12V45H934.581ZM952.965 28.2C952.965 25.736 953.397 23.448 954.261 21.336C955.157 19.192 956.389 17.336 957.957 15.768C959.557 14.168 961.413 12.936 963.525 12.072C965.669 11.176 967.973 10.728 970.437 10.728C972.901 10.728 975.189 11.176 977.301 12.072C979.445 12.936 981.301 14.168 982.869 15.768C984.469 17.336 985.701 19.192 986.565 21.336C987.461 23.448 987.909 25.736 987.909 28.2C987.909 30.664 987.461 32.968 986.565 35.112C985.701 37.224 984.469 39.08 982.869 40.68C981.301 42.248 979.445 43.48 977.301 44.376C975.189 45.24 972.901 45.672 970.437 45.672C967.973 45.672 965.669 45.24 963.525 44.376C961.413 43.48 959.557 42.248 957.957 40.68C956.389 39.08 955.157 37.224 954.261 35.112C953.397 32.968 952.965 30.664 952.965 28.2ZM956.613 28.2C956.613 31.464 957.189 34.328 958.341 36.792C959.493 39.224 961.109 41.128 963.189 42.504C965.269 43.848 967.685 44.52 970.437 44.52C973.189 44.52 975.605 43.848 977.685 42.504C979.765 41.128 981.381 39.208 982.533 36.744C983.685 34.28 984.261 31.432 984.261 28.2C984.261 24.968 983.685 22.136 982.533 19.704C981.381 17.24 979.765 15.32 977.685 13.944C975.605 12.568 973.189 11.88 970.437 11.88C967.685 11.88 965.269 12.568 963.189 13.944C961.141 15.288 959.525 17.192 958.341 19.656C957.189 22.088 956.613 24.936 956.613 28.2ZM997.254 45L998.454 10.728H999.03L1023.17 39.912H1023.46L1022.41 11.4H1025.67L1024.47 45.672H1023.89L999.75 16.488H999.462L1000.52 45H997.254ZM1037.44 45V11.4H1048C1051.72 11.4 1054.95 12.104 1057.7 13.512C1060.45 14.92 1062.6 16.888 1064.13 19.416C1065.67 21.912 1066.44 24.84 1066.44 28.2C1066.44 31.56 1065.67 34.504 1064.13 37.032C1062.6 39.528 1060.45 41.48 1057.7 42.888C1054.95 44.296 1051.72 45 1048 45H1037.44ZM1048 12.552H1040.71V43.848H1048C1052.64 43.848 1056.26 42.472 1058.85 39.72C1061.48 36.968 1062.79 33.128 1062.79 28.2C1062.79 23.272 1061.48 19.432 1058.85 16.68C1056.26 13.928 1052.64 12.552 1048 12.552ZM1089.47 45V11.4H1096.15C1099.6 11.4 1102.29 12.12 1104.21 13.56C1106.13 15 1107.09 17 1107.09 19.56C1107.09 21.448 1106.53 23.064 1105.41 24.408C1104.29 25.72 1102.72 26.616 1100.71 27.096V27.384C1103.46 27.736 1105.6 28.696 1107.14 30.264C1108.71 31.8 1109.49 33.752 1109.49 36.12C1109.49 38.904 1108.42 41.08 1106.27 42.648C1104.13 44.216 1101.12 45 1097.25 45H1089.47ZM1096.19 12.552H1092.74V26.952H1096.15C1101.2 26.952 1103.73 24.552 1103.73 19.752C1103.73 14.952 1101.22 12.552 1096.19 12.552ZM1097.25 28.104H1092.74V43.848H1097.25C1103.11 43.848 1106.03 41.224 1106.03 35.976C1106.03 30.728 1103.11 28.104 1097.25 28.104ZM1116.7 28.2C1116.7 25.736 1117.13 23.448 1118 21.336C1118.89 19.192 1120.12 17.336 1121.69 15.768C1123.29 14.168 1125.15 12.936 1127.26 12.072C1129.4 11.176 1131.71 10.728 1134.17 10.728C1136.64 10.728 1138.92 11.176 1141.04 12.072C1143.18 12.936 1145.04 14.168 1146.6 15.768C1148.2 17.336 1149.44 19.192 1150.3 21.336C1151.2 23.448 1151.64 25.736 1151.64 28.2C1151.64 30.664 1151.2 32.968 1150.3 35.112C1149.44 37.224 1148.2 39.08 1146.6 40.68C1145.04 42.248 1143.18 43.48 1141.04 44.376C1138.92 45.24 1136.64 45.672 1134.17 45.672C1131.71 45.672 1129.4 45.24 1127.26 44.376C1125.15 43.48 1123.29 42.248 1121.69 40.68C1120.12 39.08 1118.89 37.224 1118 35.112C1117.13 32.968 1116.7 30.664 1116.7 28.2ZM1120.35 28.2C1120.35 31.464 1120.92 34.328 1122.08 36.792C1123.23 39.224 1124.84 41.128 1126.92 42.504C1129 43.848 1131.42 44.52 1134.17 44.52C1136.92 44.52 1139.34 43.848 1141.42 42.504C1143.5 41.128 1145.12 39.208 1146.27 36.744C1147.42 34.28 1148 31.432 1148 28.2C1148 24.968 1147.42 22.136 1146.27 19.704C1145.12 17.24 1143.5 15.32 1141.42 13.944C1139.34 12.568 1136.92 11.88 1134.17 11.88C1131.42 11.88 1129 12.568 1126.92 13.944C1124.88 15.288 1123.26 17.192 1122.08 19.656C1120.92 22.088 1120.35 24.936 1120.35 28.2ZM1161.23 11.4H1164.49V31.656C1164.49 35.528 1165.44 38.552 1167.32 40.728C1169.24 42.872 1171.93 43.944 1175.39 43.944C1177.56 43.944 1179.45 43.528 1181.05 42.696C1182.68 41.832 1183.93 40.648 1184.8 39.144C1185.69 37.64 1186.11 35.912 1186.04 33.96L1185.23 11.4H1188.49L1187.68 33.96C1187.55 37.8 1186.4 40.712 1184.22 42.696C1182.08 44.68 1179 45.672 1175 45.672C1170.68 45.672 1167.31 44.424 1164.88 41.928C1162.44 39.4 1161.23 35.944 1161.23 31.56V11.4ZM1199.29 45L1200.49 10.728H1201.06L1225.21 39.912H1225.49L1224.44 11.4H1227.7L1226.5 45.672H1225.93L1201.78 16.488H1201.49L1202.55 45H1199.29ZM1239.47 45V11.4H1250.03C1253.75 11.4 1256.98 12.104 1259.73 13.512C1262.48 14.92 1264.63 16.888 1266.16 19.416C1267.7 21.912 1268.47 24.84 1268.47 28.2C1268.47 31.56 1267.7 34.504 1266.16 37.032C1264.63 39.528 1262.48 41.48 1259.73 42.888C1256.98 44.296 1253.75 45 1250.03 45H1239.47ZM1250.03 12.552H1242.74V43.848H1250.03C1254.67 43.848 1258.29 42.472 1260.88 39.72C1263.51 36.968 1264.82 33.128 1264.82 28.2C1264.82 23.272 1263.51 19.432 1260.88 16.68C1258.29 13.928 1254.67 12.552 1250.03 12.552ZM1273.11 45L1286.02 11.4H1289L1301.91 45H1298.4L1292.45 29.256H1281.56L1276.61 45H1273.11ZM1286.36 13.896L1281.89 28.104H1292.02L1286.64 13.896H1286.36ZM1309.69 11.4H1316.13C1319.52 11.4 1322.14 12.12 1324 13.56C1325.89 14.968 1326.83 16.952 1326.83 19.512C1326.83 21.496 1326.24 23.144 1325.05 24.456C1323.9 25.768 1322.22 26.648 1320.01 27.096V27.384C1322.13 27.8 1323.85 28.792 1325.2 30.36C1326.54 31.928 1327.55 33.864 1328.22 36.168C1328.83 38.28 1329.42 39.928 1330 41.112C1330.61 42.264 1331.26 43.096 1331.97 43.608C1332.7 44.12 1333.57 44.488 1334.56 44.712V45H1332.59C1331.18 45 1330.01 44.744 1329.09 44.232C1328.19 43.72 1327.42 42.856 1326.78 41.64C1326.14 40.424 1325.53 38.744 1324.96 36.6C1324.03 33.304 1322.8 30.968 1321.26 29.592C1319.73 28.216 1317.85 27.528 1315.65 27.528H1315.36V26.664H1315.65C1320.8 26.664 1323.37 24.296 1323.37 19.56C1323.37 14.888 1320.96 12.552 1316.13 12.552H1312.96V45H1309.69V11.4ZM1340.49 45V11.4H1343.75V45H1340.49ZM1356.24 45V11.4H1370.88V13.752L1362.48 12.648C1361.01 12.456 1360.02 12.36 1359.5 12.36V27C1359.92 27 1360.91 26.952 1362.48 26.856L1370.35 26.376V28.584L1362.48 28.104C1360.91 28.008 1359.92 27.96 1359.5 27.96V44.04C1360.08 44.04 1361.09 43.944 1362.53 43.752L1371.02 42.648V45H1356.24ZM1378.16 43.944L1378.44 41.064H1378.73C1379.98 42.152 1381.39 43 1382.96 43.608C1384.52 44.216 1386.08 44.52 1387.61 44.52C1389.79 44.52 1391.55 43.928 1392.89 42.744C1394.24 41.528 1394.91 39.912 1394.91 37.896C1394.91 36.776 1394.65 35.736 1394.14 34.776C1393.66 33.816 1392.84 32.84 1391.69 31.848C1390.57 30.856 1389.02 29.784 1387.04 28.632C1385.66 27.832 1384.35 27 1383.1 26.136C1381.85 25.24 1380.83 24.216 1380.03 23.064C1379.23 21.88 1378.83 20.472 1378.83 18.84C1378.83 16.408 1379.71 14.456 1381.47 12.984C1383.23 11.48 1385.55 10.728 1388.43 10.728C1389.71 10.728 1391.08 10.872 1392.56 11.16C1394.03 11.416 1395.16 11.752 1395.96 12.168L1395.72 14.856H1395.44C1393.61 12.872 1391.28 11.88 1388.43 11.88C1386.38 11.88 1384.73 12.408 1383.48 13.464C1382.24 14.488 1381.61 15.88 1381.61 17.64C1381.61 18.952 1381.95 20.088 1382.62 21.048C1383.32 21.976 1384.22 22.824 1385.31 23.592C1386.4 24.328 1387.56 25.048 1388.81 25.752C1390.25 26.584 1391.64 27.464 1392.99 28.392C1394.36 29.32 1395.48 30.44 1396.35 31.752C1397.24 33.032 1397.69 34.648 1397.69 36.6C1397.69 38.392 1397.28 39.976 1396.44 41.352C1395.61 42.696 1394.43 43.752 1392.89 44.52C1391.39 45.288 1389.63 45.672 1387.61 45.672C1386.33 45.672 1384.83 45.512 1383.1 45.192C1381.37 44.872 1379.72 44.456 1378.16 43.944ZM1404.28 42.984C1404.28 42.248 1404.52 41.656 1405 41.208C1405.48 40.728 1406.07 40.488 1406.77 40.488C1407.51 40.488 1408.1 40.728 1408.55 41.208C1409.03 41.656 1409.27 42.248 1409.27 42.984C1409.27 43.688 1409.03 44.28 1408.55 44.76C1408.1 45.24 1407.51 45.48 1406.77 45.48C1406.07 45.48 1405.48 45.24 1405 44.76C1404.52 44.28 1404.28 43.688 1404.28 42.984Z" fill="#363F34"/>
<path d="M77.568 312.88H189.44L124.992 135.648L57.2 322H47.472L124.992 108.896L202.512 322H77.568V312.88ZM311.009 233.536L352.353 322H342.321L299.761 230.8C300.166 230.597 301.889 229.787 304.929 228.368C308.172 226.747 310.401 225.632 311.617 225.024C312.833 224.213 314.86 222.896 317.697 221.072C320.534 219.248 322.662 217.525 324.081 215.904C325.5 214.08 327.02 212.053 328.641 209.824C330.465 207.392 331.782 204.757 332.593 201.92C333.404 198.88 333.809 195.637 333.809 192.192C333.809 179.424 327.729 170 315.569 163.92C303.409 157.84 288.31 154.8 270.273 154.8H245.953V322H236.833V145.68H270.273C294.188 145.68 312.225 149.835 324.385 158.144C336.748 166.453 342.929 177.803 342.929 192.192C342.929 201.515 339.788 209.824 333.505 217.12C327.222 224.213 319.724 229.685 311.009 233.536ZM507.583 145.68V154.8H443.743V322H434.623V154.8H370.783V145.68H507.583ZM569.974 312.88H689.75V130.784L621.35 277.312L552.95 130.48V322L543.83 321.696V108.896H552.95L621.35 255.728L689.75 109.2L698.87 108.896V322L569.974 321.696V312.88ZM846.617 155.104C839.726 152.875 831.214 151.76 821.081 151.76C810.947 151.76 802.435 152.875 795.545 155.104C788.654 157.131 782.27 161.083 776.393 166.96C770.718 172.635 766.462 181.045 763.625 192.192C760.787 203.136 759.369 217.019 759.369 233.84C759.369 250.661 760.787 264.645 763.625 275.792C766.462 286.736 770.718 295.147 776.393 301.024C782.27 306.699 788.654 310.651 795.545 312.88C802.435 314.907 810.947 315.92 821.081 315.92C831.214 315.92 839.726 314.907 846.617 312.88C853.507 310.651 859.79 306.699 865.465 301.024C871.342 295.147 875.699 286.736 878.537 275.792C881.374 264.645 882.793 250.661 882.793 233.84C882.793 217.019 881.374 203.136 878.537 192.192C875.699 181.045 871.342 172.635 865.465 166.96C859.79 161.083 853.507 157.131 846.617 155.104ZM875.497 303.456C864.553 317.845 846.414 325.04 821.081 325.04C795.747 325.04 777.609 317.845 766.665 303.456C755.721 289.067 750.249 265.861 750.249 233.84C750.249 201.819 755.721 178.613 766.665 164.224C777.609 149.835 795.747 142.64 821.081 142.64C846.414 142.64 864.553 149.835 875.497 164.224C886.441 178.613 891.913 201.819 891.913 233.84C891.913 265.861 886.441 289.067 875.497 303.456ZM1016.38 233.536L1057.73 322H1047.7L1005.14 230.8C1005.54 230.597 1007.26 229.787 1010.3 228.368C1013.55 226.747 1015.78 225.632 1016.99 225.024C1018.21 224.213 1020.23 222.896 1023.07 221.072C1025.91 219.248 1028.04 217.525 1029.46 215.904C1030.87 214.08 1032.39 212.053 1034.02 209.824C1035.84 207.392 1037.16 204.757 1037.97 201.92C1038.78 198.88 1039.18 195.637 1039.18 192.192C1039.18 179.424 1033.1 170 1020.94 163.92C1008.78 157.84 993.685 154.8 975.648 154.8H951.328V322H942.208V145.68H975.648C999.563 145.68 1017.6 149.835 1029.76 158.144C1042.12 166.453 1048.3 177.803 1048.3 192.192C1048.3 201.515 1045.16 209.824 1038.88 217.12C1032.6 224.213 1025.1 229.685 1016.38 233.536ZM1174.35 256.336L1169.79 248.432L1186.81 238.704C1200.8 231.003 1207.79 218.741 1207.79 201.92C1207.79 170.507 1183.88 154.8 1136.05 154.8H1108.08V382.8H1098.96V145.68H1136.05C1162.8 145.68 1182.96 150.645 1196.54 160.576C1210.12 170.304 1216.91 184.085 1216.91 201.92C1216.91 222.187 1208.4 237.083 1191.37 246.608L1174.35 256.336ZM1369.3 322H1360.18V233.84H1268.98V322H1259.86V145.68H1268.98V224.72H1360.18V145.68H1369.3V322Z" fill="#363F34"/>
</svg>
